<svg viewBox="0 0 64 80" xmlns="http://www.w3.org/2000/svg"><path d="m32 8.711a23.289 23.289 0 1 0 23.289 23.289 23.315 23.315 0 0 0 -23.289-23.289zm0 44.578a21.289 21.289 0 1 1 21.289-21.289 21.313 21.313 0 0 1 -21.289 21.289zm10.288-21.289a1 1 0 0 1 -1 1h-8.288v8.288a1 1 0 0 1 -2 0v-8.288h-8.288a1 1 0 0 1 0-2h8.288v-8.288a1 1 0 0 1 2 0v8.288h8.288a1 1 0 0 1 1 1z"/><g font-family="'Helvetica Neue', Helvetica, Arial-Unicode, Arial, Sans-serif" font-size="5" font-weight="bold"><text y="79"></text><text y="84"></text></g></svg>