<svg xmlns="http://www.w3.org/2000/svg" viewBox="0 0 64 80" x="0px" y="0px"><title>cross, close, exit, cancel, delete</title><g><path d="M32,6.5A25.5,25.5,0,1,0,57.5,32,25.53,25.53,0,0,0,32,6.5Zm0,48A22.5,22.5,0,1,1,54.5,32,22.52,22.52,0,0,1,32,54.5Zm8.22-28.6L34.12,32l6.1,6.1a1.49,1.49,0,0,1,0,2.12,1.5,1.5,0,0,1-2.12,0L32,34.12l-6.1,6.1a1.5,1.5,0,0,1-2.12,0,1.49,1.49,0,0,1,0-2.12l6.1-6.1-6.1-6.1a1.5,1.5,0,0,1,2.12-2.12l6.1,6.1,6.1-6.1a1.5,1.5,0,0,1,2.12,2.12Z"/></g><text x="0" y="79" fill="#000000" font-size="5px" font-weight="bold" font-family="'Helvetica Neue', Helvetica, Arial-Unicode, Arial, Sans-serif"></text><text x="0" y="84" fill="#000000" font-size="5px" font-weight="bold" font-family="'Helvetica Neue', Helvetica, Arial-Unicode, Arial, Sans-serif"></text></svg>